<?xml version="1.0" encoding="utf-8"?>
<!-- Generator: Adobe Illustrator 22.0.0, SVG Export Plug-In . SVG Version: 6.00 Build 0)  -->
<svg version="1.1" id="Layer_1" xmlns="http://www.w3.org/2000/svg" xmlns:xlink="http://www.w3.org/1999/xlink" x="0px" y="0px"
	 viewBox="0 0 156.6 54.3" style="enable-background:new 0 0 156.6 54.3;" xml:space="preserve">
<style type="text/css">
	.st0{fill:#DA1D5E;}
</style>
<g>
	<path class="st0" d="M149.3,51.7H8.4c-2.9,0-5.3-2.5-5.3-5.7V9.6C3.1,6.5,5.5,4,8.4,4h140.9c2.9,0,5.4,2.5,5.4,5.6v36.5
		C154.7,49.2,152.2,51.7,149.3,51.7L149.3,51.7z M153.6,46.1V9.6c0-2.5-1.9-4.6-4.3-4.6H8.4C6,5,4.1,7.1,4.1,9.6v36.5
		c0,2.5,1.9,4.6,4.3,4.6h140.9C151.7,50.7,153.6,48.6,153.6,46.1L153.6,46.1z"/>
	<g>
		<g>
			<path class="st0" d="M36.9,27.6c0-3.8,3-5.7,3.1-5.8c-1.7-2.6-4.3-3-5.2-3c-2.2-0.2-4.3,1.4-5.5,1.4c-1.1,0-2.9-1.4-4.7-1.3
				c-2.4,0-4.7,1.5-5.9,3.8C16.1,27.3,18,34.2,20.5,38c1.2,1.9,2.6,3.9,4.5,3.9c1.8-0.1,2.5-1.2,4.7-1.2c2.2,0,2.8,1.2,4.7,1.2
				c2,0,3.2-1.9,4.4-3.7c1.4-2.1,2-4.2,2-4.3C40.7,33.7,37,32.2,36.9,27.6z"/>
			<path class="st0" d="M33.3,16.3c1-1.3,1.7-3.1,1.5-4.9c-1.4,0.1-3.2,1-4.2,2.3c-0.9,1.1-1.7,3-1.5,4.7
				C30.7,18.5,32.3,17.6,33.3,16.3z"/>
		</g>
	</g>
	<g>
		<path class="st0" d="M63.3,41.6h-2.5l-1.4-4.7h-4.9l-1.3,4.7h-2.5l4.8-15.9h3L63.3,41.6z M59,35l-1.3-4.1c-0.1-0.4-0.4-1.4-0.8-3
			h0c-0.1,0.7-0.4,1.7-0.7,3L55,35H59z"/>
		<path class="st0" d="M75.7,35.7c0,1.9-0.5,3.5-1.5,4.6c-0.9,1-2,1.5-3.3,1.5c-1.4,0-2.4-0.5-3.1-1.6h0v6h-2.4V33.9
			c0-1.2,0-2.5-0.1-3.8h2.1l0.1,1.8h0c0.8-1.4,2-2.1,3.6-2.1c1.3,0,2.3,0.5,3.2,1.6C75.3,32.6,75.7,34,75.7,35.7z M73.3,35.8
			c0-1.1-0.2-2-0.7-2.8c-0.5-0.8-1.2-1.1-2.1-1.1c-0.6,0-1.1,0.2-1.6,0.6c-0.5,0.4-0.8,1-0.9,1.6c-0.1,0.3-0.1,0.6-0.1,0.8v1.9
			c0,0.8,0.2,1.5,0.7,2.1c0.5,0.6,1.1,0.9,1.9,0.9c0.9,0,1.6-0.4,2.1-1.1C73,38,73.3,37,73.3,35.8z"/>
		<path class="st0" d="M88.1,35.7c0,1.9-0.5,3.5-1.5,4.6c-0.9,1-2,1.5-3.3,1.5c-1.4,0-2.4-0.5-3.1-1.6h0v6h-2.4V33.9
			c0-1.2,0-2.5-0.1-3.8h2.1l0.1,1.8h0c0.8-1.4,2-2.1,3.6-2.1c1.3,0,2.3,0.5,3.2,1.6C87.7,32.6,88.1,34,88.1,35.7z M85.7,35.8
			c0-1.1-0.2-2-0.7-2.8c-0.5-0.8-1.2-1.1-2.1-1.1c-0.6,0-1.1,0.2-1.6,0.6c-0.5,0.4-0.8,1-0.9,1.6c-0.1,0.3-0.1,0.6-0.1,0.8v1.9
			c0,0.8,0.2,1.5,0.7,2.1c0.5,0.6,1.1,0.9,1.9,0.9c0.9,0,1.6-0.4,2.1-1.1C85.4,38,85.7,37,85.7,35.8z"/>
		<path class="st0" d="M102,37.1c0,1.4-0.4,2.5-1.3,3.3c-1,0.9-2.3,1.4-4.1,1.4c-1.6,0-2.9-0.3-3.9-1l0.6-2.1c1.1,0.7,2.2,1,3.5,1
			c0.9,0,1.6-0.2,2.1-0.6c0.5-0.4,0.8-1,0.8-1.7c0-0.6-0.2-1.2-0.6-1.6c-0.4-0.4-1.1-0.8-2.1-1.2c-2.6-1-3.9-2.6-3.9-4.6
			c0-1.3,0.5-2.4,1.4-3.2c0.9-0.8,2.1-1.3,3.7-1.3c1.4,0,2.5,0.3,3.4,0.8l-0.6,2.1c-0.8-0.5-1.8-0.7-2.9-0.7c-0.8,0-1.5,0.2-2,0.7
			c-0.4,0.4-0.6,0.9-0.6,1.4c0,0.6,0.2,1.1,0.7,1.6c0.4,0.4,1.1,0.8,2.2,1.2c1.3,0.6,2.2,1.2,2.8,1.9C101.7,35.1,102,36,102,37.1z"
			/>
		<path class="st0" d="M109.9,32h-2.6v5.6c0,1.4,0.5,2.1,1.4,2.1c0.4,0,0.8,0,1.1-0.1l0.1,1.9c-0.5,0.2-1.1,0.3-1.9,0.3
			c-0.9,0-1.7-0.3-2.2-0.9c-0.5-0.6-0.8-1.6-0.8-3.1V32h-1.6v-1.9h1.6V28l2.4-0.8v2.9h2.6V32z"/>
		<path class="st0" d="M121.8,35.8c0,1.8-0.5,3.2-1.4,4.3c-1,1.2-2.3,1.7-3.9,1.7c-1.6,0-2.8-0.6-3.8-1.7c-0.9-1.1-1.4-2.5-1.4-4.2
			c0-1.8,0.5-3.2,1.5-4.4c1-1.1,2.3-1.7,3.9-1.7c1.6,0,2.9,0.6,3.8,1.7C121.3,32.7,121.8,34.1,121.8,35.8z M119.3,35.8
			c0-1.1-0.2-2-0.6-2.7c-0.5-0.9-1.2-1.4-2.1-1.4c-1,0-1.7,0.5-2.2,1.4c-0.4,0.8-0.6,1.7-0.6,2.8c0,1.1,0.2,2,0.6,2.7
			c0.5,0.9,1.2,1.4,2.2,1.4c0.9,0,1.6-0.5,2.1-1.4C119.1,37.8,119.3,36.9,119.3,35.8z"/>
		<path class="st0" d="M129.6,32.4c-0.2,0-0.5-0.1-0.8-0.1c-0.8,0-1.5,0.3-2,1c-0.4,0.6-0.6,1.4-0.6,2.3v6h-2.4l0-7.8
			c0-1.3,0-2.5-0.1-3.6h2.1l0.1,2.2h0.1c0.3-0.8,0.7-1.4,1.2-1.8c0.5-0.4,1.1-0.6,1.7-0.6c0.2,0,0.4,0,0.6,0V32.4z"/>
		<path class="st0" d="M140.3,35.3c0,0.5,0,0.8-0.1,1.2H133c0,1.1,0.4,2,1,2.6c0.6,0.5,1.4,0.8,2.3,0.8c1.1,0,2-0.2,2.9-0.5l0.4,1.8
			c-1,0.5-2.2,0.7-3.6,0.7c-1.7,0-3-0.5-3.9-1.6c-1-1-1.4-2.4-1.4-4.2c0-1.7,0.4-3.2,1.3-4.3c0.9-1.2,2.2-1.8,3.8-1.8
			c1.6,0,2.7,0.6,3.5,1.8C139.9,32.7,140.3,33.9,140.3,35.3z M138,34.7c0-0.8-0.1-1.4-0.5-2c-0.4-0.7-1.1-1.1-1.9-1.1
			c-0.8,0-1.4,0.3-1.9,1c-0.4,0.6-0.6,1.2-0.7,2H138z"/>
	</g>
	<g>
		<g>
			<path class="st0" d="M58.2,15.9c0,1.4-0.4,2.5-1.2,3.2c-0.7,0.7-1.8,1-3.1,1c-0.7,0-1.2,0-1.7-0.1v-7.7c0.6-0.1,1.3-0.2,2-0.2
				c1.3,0,2.3,0.3,2.9,0.9C57.8,13.7,58.2,14.7,58.2,15.9z M56.9,16c0-0.9-0.2-1.6-0.7-2.1c-0.5-0.5-1.1-0.7-2-0.7
				c-0.4,0-0.7,0-0.9,0.1v5.8c0.1,0,0.4,0,0.8,0c0.9,0,1.6-0.3,2.1-0.8C56.7,17.8,56.9,17,56.9,16z"/>
			<path class="st0" d="M64.8,17.2c0,0.9-0.2,1.6-0.7,2.1c-0.5,0.6-1.1,0.9-1.9,0.9c-0.8,0-1.4-0.3-1.9-0.8
				c-0.5-0.5-0.7-1.2-0.7-2.1c0-0.9,0.2-1.6,0.7-2.1c0.5-0.6,1.1-0.8,1.9-0.8c0.8,0,1.4,0.3,1.9,0.8C64.5,15.6,64.8,16.3,64.8,17.2z
				 M63.5,17.2c0-0.5-0.1-1-0.3-1.3c-0.2-0.4-0.6-0.7-1.1-0.7c-0.5,0-0.8,0.2-1.1,0.7c-0.2,0.4-0.3,0.8-0.3,1.4c0,0.5,0.1,1,0.3,1.3
				c0.3,0.4,0.6,0.7,1.1,0.7c0.4,0,0.8-0.2,1.1-0.7C63.4,18.2,63.5,17.7,63.5,17.2z"/>
			<path class="st0" d="M73.6,14.4L71.9,20h-1.1l-0.7-2.4c-0.2-0.6-0.3-1.2-0.4-1.8h0c-0.1,0.6-0.2,1.2-0.4,1.8L68.6,20h-1.1
				l-1.6-5.6h1.2l0.6,2.7c0.1,0.6,0.3,1.2,0.4,1.8h0c0.1-0.5,0.2-1.1,0.4-1.8l0.8-2.7h1L71,17c0.2,0.6,0.3,1.3,0.4,1.9h0
				c0.1-0.6,0.2-1.2,0.4-1.9l0.6-2.6H73.6z"/>
			<path class="st0" d="M79.7,20h-1.2v-3.2c0-1-0.4-1.5-1.1-1.5c-0.3,0-0.6,0.1-0.8,0.4c-0.2,0.3-0.3,0.6-0.3,1V20h-1.2v-4
				c0-0.5,0-1,0-1.6h1l0.1,0.9h0c0.1-0.3,0.3-0.5,0.6-0.7c0.3-0.2,0.7-0.3,1.1-0.3c0.5,0,0.9,0.2,1.2,0.5c0.4,0.4,0.6,1,0.6,1.9V20z
				"/>
			<path class="st0" d="M82.9,20h-1.2v-8.2h1.2V20z"/>
			<path class="st0" d="M89.9,17.2c0,0.9-0.2,1.6-0.7,2.1c-0.5,0.6-1.1,0.9-1.9,0.9c-0.8,0-1.4-0.3-1.9-0.8
				c-0.5-0.5-0.7-1.2-0.7-2.1c0-0.9,0.2-1.6,0.7-2.1c0.5-0.6,1.1-0.8,1.9-0.8c0.8,0,1.4,0.3,1.9,0.8C89.6,15.6,89.9,16.3,89.9,17.2z
				 M88.6,17.2c0-0.5-0.1-1-0.3-1.3c-0.2-0.4-0.6-0.7-1.1-0.7c-0.5,0-0.8,0.2-1.1,0.7c-0.2,0.4-0.3,0.8-0.3,1.4c0,0.5,0.1,1,0.3,1.3
				c0.3,0.4,0.6,0.7,1.1,0.7c0.4,0,0.8-0.2,1.1-0.7C88.5,18.2,88.6,17.7,88.6,17.2z"/>
			<path class="st0" d="M95.5,20h-1.1l-0.1-0.6h0c-0.4,0.5-0.9,0.8-1.5,0.8c-0.5,0-0.9-0.2-1.2-0.5c-0.3-0.3-0.4-0.7-0.4-1.1
				c0-0.7,0.3-1.2,0.8-1.6c0.5-0.4,1.3-0.5,2.3-0.5v-0.1c0-0.7-0.4-1.1-1.1-1.1c-0.5,0-1,0.1-1.4,0.4l-0.2-0.8
				c0.5-0.3,1.1-0.5,1.8-0.5c1.4,0,2.1,0.8,2.1,2.3v2.1C95.5,19.2,95.5,19.7,95.5,20z M94.3,18.1v-0.9c-1.3,0-1.9,0.4-1.9,1.1
				c0,0.3,0.1,0.5,0.2,0.7c0.2,0.1,0.3,0.2,0.6,0.2c0.3,0,0.5-0.1,0.7-0.3c0.2-0.2,0.4-0.4,0.4-0.7C94.3,18.2,94.3,18.2,94.3,18.1z"
				/>
			<path class="st0" d="M102.2,20h-1l-0.1-0.9h0c-0.3,0.7-0.9,1-1.7,1c-0.6,0-1.2-0.3-1.6-0.8c-0.4-0.5-0.6-1.2-0.6-2.1
				c0-0.9,0.2-1.6,0.7-2.2c0.4-0.5,1-0.8,1.6-0.8c0.7,0,1.2,0.3,1.5,0.8h0v-3.2h1.2v6.7C102.2,19,102.2,19.6,102.2,20z M101,17.6
				v-0.9c0-0.2,0-0.3,0-0.4c-0.1-0.3-0.2-0.6-0.4-0.8c-0.2-0.2-0.5-0.3-0.8-0.3c-0.4,0-0.8,0.2-1,0.6c-0.3,0.4-0.4,0.8-0.4,1.4
				c0,0.6,0.1,1,0.4,1.4c0.3,0.4,0.6,0.6,1,0.6c0.4,0,0.7-0.2,0.9-0.5C100.9,18.4,101,18,101,17.6z"/>
			<path class="st0" d="M112.3,17.2c0,0.9-0.2,1.6-0.7,2.1c-0.5,0.6-1.1,0.9-1.9,0.9c-0.8,0-1.4-0.3-1.9-0.8
				c-0.5-0.5-0.7-1.2-0.7-2.1c0-0.9,0.2-1.6,0.7-2.1c0.5-0.6,1.1-0.8,1.9-0.8c0.8,0,1.4,0.3,1.9,0.8
				C112.1,15.6,112.3,16.3,112.3,17.2z M111.1,17.2c0-0.5-0.1-1-0.3-1.3c-0.2-0.4-0.6-0.7-1.1-0.7c-0.5,0-0.8,0.2-1.1,0.7
				c-0.2,0.4-0.3,0.8-0.3,1.4c0,0.5,0.1,1,0.3,1.3c0.3,0.4,0.6,0.7,1.1,0.7c0.4,0,0.8-0.2,1.1-0.7C111,18.2,111.1,17.7,111.1,17.2z"
				/>
			<path class="st0" d="M118.6,20h-1.2v-3.2c0-1-0.4-1.5-1.1-1.5c-0.3,0-0.6,0.1-0.8,0.4c-0.2,0.3-0.3,0.6-0.3,1V20H114v-4
				c0-0.5,0-1,0-1.6h1l0.1,0.9h0c0.1-0.3,0.3-0.5,0.6-0.7c0.3-0.2,0.7-0.3,1.1-0.3c0.5,0,0.9,0.2,1.2,0.5c0.4,0.4,0.6,1,0.6,1.9V20z
				"/>
			<path class="st0" d="M126.5,15.3h-1.3v2.7c0,0.7,0.2,1,0.7,1c0.2,0,0.4,0,0.5-0.1l0,0.9c-0.2,0.1-0.5,0.1-0.9,0.1
				c-0.5,0-0.8-0.2-1.1-0.5c-0.3-0.3-0.4-0.8-0.4-1.5v-2.8h-0.8v-0.9h0.8v-1l1.2-0.4v1.4h1.3V15.3z"/>
			<path class="st0" d="M132.8,20h-1.2v-3.2c0-1-0.4-1.5-1.1-1.5c-0.5,0-0.9,0.3-1.1,0.9c0,0.1-0.1,0.3-0.1,0.5V20h-1.2v-8.2h1.2
				v3.4h0c0.4-0.6,0.9-0.9,1.6-0.9c0.5,0,0.9,0.2,1.2,0.5c0.4,0.4,0.6,1.1,0.6,1.9V20z"/>
			<path class="st0" d="M139.2,16.9c0,0.2,0,0.4,0,0.6h-3.5c0,0.6,0.2,1,0.5,1.3c0.3,0.3,0.7,0.4,1.2,0.4c0.5,0,1-0.1,1.4-0.3
				l0.2,0.9c-0.5,0.2-1.1,0.3-1.8,0.3c-0.8,0-1.5-0.3-1.9-0.8c-0.5-0.5-0.7-1.2-0.7-2.1c0-0.8,0.2-1.6,0.7-2.1
				c0.5-0.6,1.1-0.9,1.9-0.9c0.8,0,1.3,0.3,1.7,0.9C139,15.6,139.2,16.2,139.2,16.9z M138.1,16.6c0-0.4-0.1-0.7-0.2-1
				c-0.2-0.3-0.5-0.5-0.9-0.5c-0.4,0-0.7,0.2-0.9,0.5c-0.2,0.3-0.3,0.6-0.3,1H138.1z"/>
		</g>
	</g>
</g>
</svg>
