<?xml version="1.0" encoding="utf-8"?>
<!-- Generator: Adobe Illustrator 22.0.0, SVG Export Plug-In . SVG Version: 6.00 Build 0)  -->
<svg version="1.1" id="Layer_1" xmlns="http://www.w3.org/2000/svg" xmlns:xlink="http://www.w3.org/1999/xlink" x="0px" y="0px"
	 viewBox="0 0 156.6 54.3" style="enable-background:new 0 0 156.6 54.3;" xml:space="preserve">
<style type="text/css">
	.Graphic_x0020_Style_x0020_4{fill:url(#SVGID_1_);}
	.st0{fill:#DA1D5E;}
	.st1{fill:#60C6F1;}
	.st2{fill:url(#SVGID_2_);}
	.st3{fill:url(#SVGID_3_);}
	.st4{fill:url(#SVGID_4_);}
</style>
<linearGradient id="SVGID_1_" gradientUnits="userSpaceOnUse" x1="-280.3271" y1="-151.6355" x2="-281.0342" y2="-150.9284">
	<stop  offset="0" style="stop-color:#EB4447"/>
	<stop  offset="1" style="stop-color:#C31D6D"/>
</linearGradient>
<g>
	<g>
		<g>
			<path class="st0" d="M148.4,5.1c2.6,0,4.7,2.2,4.7,5V46c0,2.8-2.1,5-4.7,5H8.1c-2.6,0-4.7-2.2-4.7-5V10.2c0-2.8,2.1-5,4.7-5
				H148.4 M148.4,4.2H8.1c-3.1,0-5.6,2.7-5.6,6V46c0,3.3,2.5,6,5.6,6h140.3c3.1,0,5.6-2.7,5.6-6V10.2C154,6.9,151.5,4.2,148.4,4.2
				L148.4,4.2z"/>
		</g>
	</g>
	<g>
		<path class="st0" d="M55.7,16.4c0,1-0.3,1.8-0.8,2.4c-0.6,0.7-1.5,1.1-2.5,1.1c-1,0-1.8-0.4-2.5-1.1c-0.7-0.7-1-1.6-1-2.7
			c0-1.1,0.3-1.9,1-2.7c0.7-0.7,1.5-1.1,2.5-1.1c0.5,0,0.9,0.1,1.4,0.3c0.4,0.2,0.8,0.5,1.1,0.8l-0.6,0.6c-0.4-0.6-1.1-0.8-1.8-0.8
			c-0.7,0-1.3,0.3-1.8,0.8c-0.5,0.5-0.8,1.2-0.8,2.1c0,0.8,0.3,1.5,0.8,2.1c0.5,0.5,1.1,0.8,1.8,0.8c0.8,0,1.4-0.3,1.9-0.8
			c0.3-0.3,0.5-0.8,0.6-1.5h-2.4v-0.9h3.3C55.7,16.1,55.7,16.2,55.7,16.4z"/>
		<path class="st0" d="M60.9,13.4h-3.1v2.3h2.8v0.9h-2.8v2.3h3.1v0.9h-3.9v-7.2h3.9V13.4z"/>
		<path class="st0" d="M64.5,19.7h-0.9v-6.3h-1.9v-0.9h4.6v0.9h-1.9V19.7z"/>
		<path class="st0" d="M69.7,19.7v-7.2h0.9v7.2H69.7z"/>
		<path class="st0" d="M74.4,19.7h-0.9v-6.3h-1.9v-0.9h4.6v0.9h-1.9V19.7z"/>
		<path class="st0" d="M85.1,18.8c-0.7,0.7-1.5,1.1-2.5,1.1c-1,0-1.8-0.4-2.5-1.1c-0.7-0.7-1-1.6-1-2.7c0-1,0.3-1.9,1-2.7
			c0.7-0.7,1.5-1.1,2.5-1.1c1,0,1.8,0.4,2.5,1.1c0.7,0.7,1,1.6,1,2.7C86.1,17.2,85.7,18.1,85.1,18.8z M80.8,18.2
			c0.5,0.5,1.1,0.8,1.8,0.8c0.7,0,1.3-0.3,1.8-0.8c0.5-0.5,0.7-1.2,0.7-2.1c0-0.8-0.3-1.5-0.7-2.1c-0.5-0.5-1.1-0.8-1.8-0.8
			c-0.7,0-1.3,0.3-1.8,0.8c-0.5,0.5-0.7,1.2-0.7,2.1C80,17,80.3,17.6,80.8,18.2z"/>
		<path class="st0" d="M87.3,19.7v-7.2h1.1l3.3,5.6h0l0-1.4v-4.2h0.9v7.2h-0.9l-3.4-5.8h0l0,1.4v4.5H87.3z"/>
	</g>
	<path class="st0" d="M78.9,30.2c-2.6,0-4.8,2.1-4.8,5.1c0,2.9,2.2,5.1,4.8,5.1c2.6,0,4.8-2.2,4.8-5.1
		C83.7,32.3,81.6,30.2,78.9,30.2z M78.9,38.3c-1.4,0-2.7-1.3-2.7-3.1c0-1.8,1.2-3.1,2.7-3.1s2.7,1.2,2.7,3.1
		C81.6,37,80.4,38.3,78.9,38.3z M68.5,30.2c-2.6,0-4.8,2.1-4.8,5.1c0,2.9,2.2,5.1,4.8,5.1c2.6,0,4.8-2.2,4.8-5.1
		C73.3,32.3,71.1,30.2,68.5,30.2z M68.5,38.3c-1.4,0-2.7-1.3-2.7-3.1c0-1.8,1.2-3.1,2.7-3.1c1.4,0,2.7,1.2,2.7,3.1
		C71.2,37,69.9,38.3,68.5,38.3z M56,31.7v2.2h4.8c-0.1,1.2-0.5,2.1-1.1,2.7c-0.7,0.7-1.8,1.6-3.7,1.6c-3,0-5.3-2.6-5.3-5.7
		c0-3.2,2.3-5.7,5.3-5.7c1.6,0,2.8,0.7,3.7,1.5l1.4-1.5c-1.2-1.2-2.8-2.2-5.1-2.2c-4.1,0-7.5,3.5-7.5,7.9c0,4.3,3.4,7.9,7.5,7.9
		c2.2,0,3.9-0.8,5.2-2.2c1.3-1.4,1.8-3.4,1.8-5c0-0.5,0-1-0.1-1.3H56z M106.9,33.4c-0.4-1.1-1.6-3.2-4.1-3.2c-2.5,0-4.5,2.1-4.5,5.1
		c0,2.8,2,5.1,4.7,5.1c2.2,0,3.5-1.4,4-2.2l-1.6-1.2c-0.5,0.8-1.3,1.4-2.4,1.4c-1.1,0-1.8-0.5-2.3-1.5l6.4-2.8L106.9,33.4z
		 M100.4,35.1c-0.1-2,1.4-3,2.5-3c0.8,0,1.5,0.4,1.8,1.1L100.4,35.1z M95.2,40h2.1V25.1h-2.1V40z M91.8,31.3L91.8,31.3
		c-0.5-0.6-1.4-1.1-2.6-1.1c-2.4,0-4.6,2.2-4.6,5.1c0,2.8,2.2,5.1,4.6,5.1c1.1,0,2-0.5,2.5-1.2h0.1v0.7c0,1.9-1,3-2.6,3
		c-1.3,0-2.1-1-2.4-1.8L85,41.9c0.5,1.3,1.9,3,4.2,3c2.5,0,4.5-1.5,4.5-5.3v-9.1h-2V31.3z M89.4,38.3c-1.4,0-2.7-1.3-2.7-3.1
		c0-1.8,1.2-3.1,2.7-3.1c1.4,0,2.6,1.3,2.6,3.1C91.9,37,90.8,38.3,89.4,38.3z M116.7,25.1h-5V40h2.1v-5.7h2.9c2.3,0,4.6-1.8,4.6-4.6
		S119.1,25.1,116.7,25.1z M116.8,32.3h-3v-5.1h3c1.6,0,2.5,1.4,2.5,2.6C119.2,30.9,118.4,32.3,116.8,32.3z M129.7,30.1
		c-1.5,0-3.1,0.7-3.7,2.3l1.9,0.8c0.4-0.8,1.1-1.1,1.9-1.1c1.1,0,2.2,0.7,2.2,1.9v0.2c-0.4-0.2-1.2-0.6-2.2-0.6c-2,0-4,1.2-4,3.4
		c0,2,1.6,3.3,3.5,3.3c1.4,0,2.2-0.7,2.7-1.5h0.1V40h2v-5.7C134,31.6,132.1,30.1,129.7,30.1z M129.5,38.3c-0.7,0-1.6-0.4-1.6-1.3
		c0-1.2,1.2-1.6,2.2-1.6c0.9,0,1.4,0.2,1.9,0.5C131.8,37.3,130.7,38.3,129.5,38.3z M141.4,30.5l-2.4,6.5h-0.1l-2.5-6.5h-2.3l3.7,9
		l-2.1,5h2.2l5.8-14.1H141.4z M122.5,40h2.1V25.1h-2.1V40z"/>
	<g>
		<g>
			<g>
				<path class="st1" d="M14.2,13.2c-0.3,0.4-0.5,0.9-0.5,1.7v26.4c0,0.7,0.2,1.3,0.5,1.7l0.1,0.1l13.9-14.8v-0.2v-0.2L14.2,13.2
					L14.2,13.2z"/>
				<linearGradient id="SVGID_2_" gradientUnits="userSpaceOnUse" x1="37.3449" y1="28.064" x2="10.2014" y2="28.064">
					<stop  offset="0" style="stop-color:#FCDD00"/>
					<stop  offset="0.3956" style="stop-color:#FABC0F"/>
					<stop  offset="0.7704" style="stop-color:#F9A41B"/>
					<stop  offset="1" style="stop-color:#F89B1F"/>
				</linearGradient>
				<path class="st2" d="M32.8,33.2l-4.6-4.9v-0.2v-0.2l4.6-4.9l0.1,0.1l5.5,3.3c1.6,0.9,1.6,2.5,0,3.4l-5.5,3.3L32.8,33.2z"/>
				<linearGradient id="SVGID_3_" gradientUnits="userSpaceOnUse" x1="30.3692" y1="30.7195" x2="4.03" y2="57.0587">
					<stop  offset="0" style="stop-color:#EB4447"/>
					<stop  offset="1" style="stop-color:#C31D6D"/>
				</linearGradient>
				<path class="st3" d="M32.9,33.1l-4.7-5l-14,14.9c0.5,0.6,1.4,0.7,2.3,0.1L32.9,33.1"/>
				<linearGradient id="SVGID_4_" gradientUnits="userSpaceOnUse" x1="3.9126" y1="-1.049" x2="25.4179" y2="20.4562">
					<stop  offset="0" style="stop-color:#219C6F"/>
					<stop  offset="9.344453e-02" style="stop-color:#2BA16E"/>
					<stop  offset="0.4902" style="stop-color:#53B26B"/>
					<stop  offset="0.8062" style="stop-color:#6BBD69"/>
					<stop  offset="1" style="stop-color:#74C168"/>
				</linearGradient>
				<path class="st4" d="M32.9,23l-16.4-9.9c-1-0.6-1.8-0.5-2.3,0.1l14,14.9L32.9,23z"/>
			</g>
		</g>
	</g>
</g>
</svg>
