<?xml version="1.0" encoding="utf-8"?>
<!-- Generator: Adobe Illustrator 22.0.0, SVG Export Plug-In . SVG Version: 6.00 Build 0)  -->
<svg version="1.1" id="Layer_1" xmlns="http://www.w3.org/2000/svg" xmlns:xlink="http://www.w3.org/1999/xlink" x="0px" y="0px"
	 viewBox="0 0 1080 577.6" style="enable-background:new 0 0 1080 577.6;" xml:space="preserve">
<style type="text/css">
	.st0{fill-rule:evenodd;clip-rule:evenodd;fill:#F69321;}
	.st1{clip-path:url(#SVGID_2_);fill:url(#SVGID_3_);}
	.st2{clip-path:url(#SVGID_5_);fill:url(#SVGID_6_);}
	.st3{clip-path:url(#SVGID_8_);fill:url(#SVGID_9_);}
	.st4{fill-rule:evenodd;clip-rule:evenodd;fill:#D91F5D;}
	.st5{clip-path:url(#SVGID_11_);fill:url(#SVGID_12_);}
	.st6{fill-rule:evenodd;clip-rule:evenodd;fill:#FFCE00;}
	.st7{fill:#79A256;}
	.st8{fill:#D91C5C;}
	.st9{fill:#F69220;}
	.st10{fill:#F6921E;}
</style>
<g>
	<g>
		<path class="st0" d="M756.5,183.2c92.3-53.3,210.3-21.7,263.6,70.6c11.2,19.4,18.7,40,22.6,60.9c-7.7-6.2-17.6-10-28.4-10
			c-11.4,0-21.7,4.2-29.7,11c-18.7-63.3-86.8-92.6-131.5-22.5c-44.7-70.1-112.8-40.8-131.5,22.5c-8-6.9-18.4-11-29.7-11
			c-10.9,0-20.7,3.7-28.4,9.9C673.4,261.3,705.8,212.4,756.5,183.2"/>
		<g>
			<defs>
				<path id="SVGID_1_" d="M949.5,183.2c-92.3-53.3-210.3-21.7-263.6,70.6c-11.2,19.4-18.7,40-22.6,60.9c7.7-6.2,17.6-10,28.4-10
					c11.4,0,21.7,4.2,29.7,11c3.8-13,9.7-24.5,17.1-34.1l0,0c47.7-76.7,215.4-119.4,282.9-25.5
					C1005.1,226.7,980.8,201.2,949.5,183.2"/>
			</defs>
			<clipPath id="SVGID_2_">
				<use xlink:href="#SVGID_1_"  style="overflow:visible;"/>
			</clipPath>
			
				<linearGradient id="SVGID_3_" gradientUnits="userSpaceOnUse" x1="56.1173" y1="818.0943" x2="57.1759" y2="818.0943" gradientTransform="matrix(-152.6723 152.6752 -152.6768 -152.6738 134333.2656 116537.3594)">
				<stop  offset="0" style="stop-color:#F6C821"/>
				<stop  offset="0.9966" style="stop-color:#F69321"/>
			</linearGradient>
			<polygon class="st1" points="842.4,-49.2 570.4,222.8 842.4,494.8 1114.4,222.8 			"/>
		</g>
		<g>
			<defs>
				<path id="SVGID_4_" d="M691.8,318.5c17.5,0,31.8,14.2,31.8,31.8c26.4,119.9,140,154.5,253.7,147.7
					c-35.2,29.4-78.6,44.6-124.2,45.3c-106.7-1.2-192.5-84.9-193-192.2C659.8,333.2,673.7,318.5,691.8,318.5"/>
			</defs>
			<clipPath id="SVGID_5_">
				<use xlink:href="#SVGID_4_"  style="overflow:visible;"/>
			</clipPath>
			
				<linearGradient id="SVGID_6_" gradientUnits="userSpaceOnUse" x1="59.8946" y1="816.3226" x2="61.3382" y2="816.3226" gradientTransform="matrix(148.8845 148.8823 -148.8819 148.8841 113285.7031 -130174.8828)">
				<stop  offset="0" style="stop-color:#D91F5D"/>
				<stop  offset="0.9966" style="stop-color:#FF88BC"/>
			</linearGradient>
			<polygon class="st2" points="547.4,430.9 818.5,702 1089.6,430.9 818.5,159.8 			"/>
		</g>
		<g>
			<defs>
				<path id="SVGID_7_" d="M756.5,183.2c92.3-53.3,210.3-21.7,263.6,70.6c11.2,19.4,18.7,40,22.6,60.9c-7.7-6.2-17.6-10-28.4-10
					c-11.4,0-21.7,4.2-29.7,11c-3.8-13-9.7-24.5-17.1-34.1l0,0c-47.7-76.7-215.4-119.4-282.9-25.5
					C700.9,226.7,725.2,201.2,756.5,183.2"/>
			</defs>
			<clipPath id="SVGID_8_">
				<use xlink:href="#SVGID_7_"  style="overflow:visible;"/>
			</clipPath>
			
				<linearGradient id="SVGID_9_" gradientUnits="userSpaceOnUse" x1="60.1479" y1="816.111" x2="61.2066" y2="816.111" gradientTransform="matrix(152.6723 152.6752 -152.6768 152.6738 116262.2188 -133578.7344)">
				<stop  offset="0" style="stop-color:#F6C821"/>
				<stop  offset="1" style="stop-color:#F69321"/>
			</linearGradient>
			<polygon class="st3" points="591.6,222.8 863.6,494.8 1135.6,222.8 863.6,-49.2 			"/>
		</g>
		<path class="st4" d="M853.8,319.2c17.9,0,32.5,14.5,32.5,32.5c0,17.9-14.6,32.5-32.5,32.5c-17.9,0-32.5-14.5-32.5-32.5
			C821.3,333.8,835.8,319.2,853.8,319.2"/>
		<g>
			<defs>
				<path id="SVGID_10_" d="M1014.3,318.5c-17.5,0-31.8,14.2-31.8,31.8c-26.4,119.9-140,154.5-253.7,147.7
					c35.2,29.4,78.6,44.6,124.2,45.3c106.7-1.2,192.5-84.9,193-192.2C1046.2,333.2,1032.3,318.5,1014.3,318.5"/>
			</defs>
			<clipPath id="SVGID_11_">
				<use xlink:href="#SVGID_10_"  style="overflow:visible;"/>
			</clipPath>
			
				<linearGradient id="SVGID_12_" gradientUnits="userSpaceOnUse" x1="55.7574" y1="817.7773" x2="57.2011" y2="817.7773" gradientTransform="matrix(-148.8847 148.8825 -148.8819 -148.8841 131092.8594 113731.9609)">
				<stop  offset="0" style="stop-color:#D91F5D"/>
				<stop  offset="1" style="stop-color:#FF88BC"/>
			</linearGradient>
			<polygon class="st5" points="887.5,159.8 616.5,430.9 887.5,702 1158.6,430.9 			"/>
		</g>
		<path class="st4" d="M853,485.5c38.2,11.6,81.2,15,124.2,12.4l-1.3,1.1l-0.2,0.2l-0.2,0.1c-1.1,0.9-2.2,1.8-3.4,2.7l-0.1,0.1l0,0
			c-15.8,12.2-33.5,22.1-52.7,29.1l0,0c-1.4,0.5-2.9,1-4.3,1.5l-0.1,0l-0.2,0.1c-1.2,0.4-2.3,0.8-3.5,1.1l-2,0.6l-0.1,0l-2,0.6
			c-16.4,4.8-33.4,7.4-50.8,7.9l-3.2,0.1h0h0h0c-1.1,0-2.1,0-3.2-0.1c-17.4-0.5-34.5-3.2-50.8-7.9l-2-0.6l-0.1,0l-2-0.6
			c-1.2-0.4-2.3-0.7-3.5-1.1l-0.2-0.1l-0.1,0c-1.4-0.5-2.9-1-4.3-1.5l0,0c-19.2-7-36.9-16.9-52.7-29.1l0,0l-0.1-0.1
			c-1.1-0.9-2.2-1.8-3.4-2.7l-0.1-0.1l-0.2-0.2l-1.3-1.1C771.8,500.5,814.8,497.2,853,485.5"/>
		<path class="st6" d="M949.5,183.2c-5.6-3.2-11.3-6.2-17.1-8.8l-1.9-0.9l-1.8-0.8c-1.3-0.5-2.5-1.1-3.8-1.6l0,0
			c-21.5-8.6-44.5-13.3-67.7-13.9l-0.4,0c-1.3,0-2.5,0-3.8,0c-1.3,0-2.6,0-3.8,0l-0.4,0c-23.3,0.5-46.2,5.3-67.7,13.9l0,0
			c-1.3,0.5-2.5,1-3.8,1.6l-1.8,0.8l-1.9,0.9c-5.8,2.6-11.5,5.5-17.1,8.8c-13.2,7.6-25.1,16.6-35.8,26.6l0,0l-1.2,1.1l-1.7,1.7
			l-1.8,1.8l-1.3,1.3c-0.8,0.9-1.7,1.7-2.5,2.6l-0.4,0.4c-9.7,10.5-18.5,22.2-25.9,35.1l-1.3,2.3c37.7-52.3,106.6-62.1,168.4-47.3
			c61.8-14.9,130.7-5.1,168.4,47.3l-1.3-2.3c-7.5-12.9-16.2-24.6-25.9-35.1l-0.4-0.4c-0.8-0.9-1.7-1.7-2.5-2.6l-1.3-1.3l-1.8-1.8
			l-1.7-1.7l-1.2-1.1l0,0C974.6,199.7,962.7,190.8,949.5,183.2"/>
	</g>
	<g>
		<path class="st7" d="M880.8,63.2c-0.2,0.2-3.4,0-6.9-0.1c-11.5-0.5-21.9,4-26.8,14.9c-1.8,4-2.9,8.6-3.3,13.4
			c-1,12.1,0.6,24.2,3,36c0.4,2,4.5,26.2,6.5,26.2h3.3C856.6,153.4,855.3,88.7,880.8,63.2z M852.2,111.5c-0.9-7.3-1-13.6-0.5-19.6
			c0.3-4.1,1.2-7.7,2.6-10.8c2.4-5.3,6.4-8,10.6-9.3C858.4,83.7,854.5,98.1,852.2,111.5z"/>
	</g>
	<path class="st7" d="M760.6,54.7c3.9,15.1,0.1,32.5,13.6,43.5c7.8,6.4,16.7,10.6,26.1,14.2c8.7,3.3,17.9,6.7,24.4,13.6
		c0,0-9.5-38.6-43-58.6l0.4-1c45.1,17.1,55.2,77.5,55.2,77.5c-8-10.5-22.9-14.2-34.7-18.5c-13.1-4.8-26.4-9.9-37.4-18.8
		c-13.5-11-9.7-28.4-13.5-43.5c-0.7-2.5-5.4-21-9.4-21.2c88.9,3.9,95,70.9,95,70.9S821.5,63.1,760.6,54.7"/>
	<path class="st8" d="M118.4,356.3l12.2-26.3l59.1,0.1v26.2L118.4,356.3z"/>
	<path class="st8" d="M256.9,356.3h-16.2V340c-0.4,2-0.8,3.7-1.4,5.2c-0.9,2.3-2.2,4.3-3.9,6.1c-2.2,2-5,3.5-8.3,4.4l-4.4,0.6h-32.9
		v-26.2h19c1.1,0,2-0.1,2.5-0.2c0.7-0.1,1.4-0.5,2-1.2c0.7-0.5,1.1-1.5,1.4-2.8l0.2-1.7v-30.8l0.5-3.4c0.2-1.2,0.6-2.2,1.2-3.3
		c2.2-4.4,6-6.6,11.3-6.6c5.3,0,9.2,2.2,11.6,6.6c0.7,1.5,1.3,3.7,1.6,6.6v36.7h16V356.3z M203.6,384.1c0,3.9-1.3,7.2-3.9,9.8
		c-2.6,2.7-5.8,4-9.8,4c-3.7,0-6.9-1.4-9.8-4.2c-2.8-2.8-4.2-6-4.2-9.7c0-3.8,1.4-7.1,4.1-9.8c2.8-2.7,6-4,9.8-4
		c3.8,0,7,1.4,9.6,4.1C202.3,377.2,203.6,380.4,203.6,384.1z"/>
	<path class="st8" d="M256.9,356.3v-26.2h13.6l-0.9-4l-0.6-4.4l-0.2-5.6c0-3.9,0.7-8.1,2.2-12.8c1.5-4.6,4.4-9,8.8-13
		c4.8-4.5,9.8-7.5,15.1-9.1c5.3-1.6,9.8-2.4,13.7-2.4l4.8,0.3c1.3,0,3.1,0.4,5.2,1.2l3.8,1.4l7.6,4.7c5.1,3.4,9.1,8.9,12,16.5
		c1.8,4.8,2.7,9.3,2.7,13.3c0,1.7-0.2,3.5-0.5,5.5l-1.2,5.9l-0.6,2.3l-4,7.5c-2.6,4.8-6.6,8.9-12.1,12.2c-2.7,1.6-5.6,2.9-8.9,3.8
		l-9,2l-3.8,0.5l-3.1,0.2l-2.7,0.2H256.9z M306.1,304.2c-3.4,0-6.3,1.2-8.8,3.6c-2.5,2.4-3.7,5.4-3.7,8.8c0,3.4,1.2,6.4,3.7,8.8
		c2.5,2.4,5.4,3.6,8.8,3.6c3.3,0,6.2-1.2,8.8-3.5c2.5-2.4,3.8-5.3,3.8-8.9c0-3.4-1.2-6.3-3.6-8.8
		C312.6,305.5,309.6,304.2,306.1,304.2z"/>
	<path class="st8" d="M409.2,356.3h-19.3h-1.1l-1.6,0.1c-3.1,0-6-0.3-8.9-0.8c-3.9-0.8-7-2.2-9.3-4.4c-2.3-2.1-4-5.5-5.1-10.1
		l-0.7-4.4l-0.3-5.1v-1.2l0.1-0.8V227.6c0-4.5,1.2-8.3,3.7-11.4c2.5-3.1,6.1-4.6,10.8-4.6c4.5,0,7.9,1.8,10.3,5.4
		c1.8,3,2.6,6.9,2.6,11.7v95.8l0.1,2.4c0,0.5,0.4,1.2,1.1,2.1c0.4,0.4,1.2,0.7,2.3,1l2.4,0.1h13.1V356.3z"/>
	<path class="st8" d="M476.3,356.3h-16.2V340c-0.4,2-0.8,3.7-1.4,5.2c-0.9,2.3-2.2,4.3-3.9,6.1c-2.2,2-5,3.5-8.3,4.4l-4.4,0.6h-32.9
		v-26.2h19c1.2,0,2-0.1,2.5-0.2c0.7-0.1,1.4-0.5,2-1.2c0.7-0.5,1.1-1.5,1.4-2.8l0.2-1.7v-30.8l0.5-3.4c0.2-1.2,0.6-2.2,1.2-3.3
		c2.2-4.4,6-6.6,11.3-6.6c5.3,0,9.2,2.2,11.6,6.6c0.7,1.5,1.3,3.7,1.6,6.6v36.7h16V356.3z M461,225.8c0,3.6-1.3,6.7-4,9.5
		c-2.7,2.8-6,4.2-9.8,4.2c-3.8,0-7.1-1.4-9.8-4.1c-2.7-2.8-4-5.9-4-9.6c0-3.9,1.3-7.2,4-9.8c2.7-2.7,5.9-4,9.8-4
		c3.8,0,7.1,1.3,9.8,4C459.6,218.7,461,222,461,225.8z M461,259.9c0,3.6-1.4,6.8-4.1,9.6c-2.8,2.8-6,4.2-9.8,4.2
		c-3.8,0-7.1-1.4-9.8-4.1c-2.7-2.8-4-6-4-9.7c0-3.8,1.3-7.1,4-9.8c2.7-2.7,5.9-4,9.8-4c3.9,0,7.2,1.3,9.8,4
		C459.6,252.8,461,256.1,461,259.9z"/>
	<path class="st8" d="M543.5,356.3h-16.2V340c-0.4,2-0.8,3.7-1.4,5.2c-0.9,2.3-2.2,4.3-3.9,6.1c-2.2,2-5,3.5-8.3,4.4l-4.4,0.6h-32.9
		v-26.2h19c1.2,0,2-0.1,2.5-0.2c0.7-0.1,1.4-0.5,2-1.2c0.7-0.5,1.1-1.5,1.4-2.8l0.2-1.7v-30.8l0.5-3.4c0.2-1.2,0.6-2.2,1.2-3.3
		c2.2-4.4,6-6.6,11.3-6.6c5.3,0,9.2,2.2,11.6,6.6c0.7,1.5,1.3,3.7,1.6,6.6v36.7h16V356.3z"/>
	<path class="st8" d="M501.6,384.1c0,3.9-1.3,7.2-3.9,9.8c-2.6,2.7-5.8,4-9.8,4c-3.7,0-6.9-1.4-9.8-4.2c-2.8-2.8-4.2-6-4.2-9.7
		c0-3.6,1.4-6.8,4.1-9.6c2.7-2.8,6-4.2,9.9-4.2c3.8,0,7,1.4,9.6,4.1C500.3,377.2,501.6,380.4,501.6,384.1z"/>
	<path class="st8" d="M627.3,302.9l-0.3,8.7l-0.3,8l-0.5,7.5l-0.3,2.4l-0.1,1.6c0,0.4-0.2,1.2-0.6,2.2l-1.5,3.8l-2.3,4.7
		c-1.8,3.3-4.1,6.1-6.9,8.4c-2.1,1.7-4.2,3.1-6.4,4.1c-2.4,1-4.6,1.5-6.6,1.5l-6.9,0.5h-51.3v-26.2h44.7c7.6,0,12.2-3.6,13.7-10.7
		l-5.6,1.4l-3.7,0.5h-2c-10,0-18.5-3.5-25.6-10.6c-7.1-7.1-10.6-15.7-10.6-25.9c0-10,3.6-18.5,10.7-25.6
		c7.1-7.1,15.6-10.7,25.5-10.7c8.2,0,15.5,2.5,21.9,7.6c6.4,5.1,10.8,11.5,13.1,19.5l0.6,3.3l0.6,8.9l0.2,8.3L627.3,302.9z
		 M602.5,284.3c0-3.3-1.2-6.2-3.6-8.7c-2.4-2.5-5.3-3.8-8.9-3.8c-3.4,0-6.3,1.2-8.7,3.7c-2.4,2.5-3.6,5.4-3.6,8.7
		c0,3.2,1.2,6.1,3.5,8.6c2.4,2.5,5.3,3.8,8.7,3.8c3.4,0,6.4-1.2,8.8-3.7C601.3,290.4,602.5,287.5,602.5,284.3z M606.3,226.9
		c0,3.8-1.3,7.1-4,9.8c-2.7,2.7-5.9,4-9.8,4s-7.1-1.4-9.8-4.1c-2.7-2.8-4-6-4-9.7c0-3.8,1.4-7.1,4.1-9.8c2.7-2.7,6-4.1,9.7-4.1
		c3.6,0,6.8,1.4,9.6,4.1C604.9,219.9,606.3,223.2,606.3,226.9z"/>
	<g>
		<path class="st9" d="M147.1,410.4h23.2v78.1h-23.2V410.4z"/>
		<path class="st9" d="M233,388.2v22.2h23.9v17.9H233v33.1c0,3.6,0.7,6.1,2,7.4c1.3,1.3,4,1.9,8,1.9h11.9v17.9H235
			c-9.1,0-15.6-2.1-19.4-6.2c-3.8-4.1-5.7-11.1-5.7-21v-33.1h-11.5v-17.9h11.5v-22.2H233z"/>
		<path class="st9" d="M344.2,442.6v44.6h-23.4v-11.6c-3.1,4.7-6.6,8.2-10.5,10.4c-3.9,2.2-8.6,3.2-14.2,3.2
			c-7.5,0-13.6-2.4-18.3-7.1c-4.7-4.7-7-10.8-7-18.4c0-9.2,2.9-15.9,8.8-20.2c5.8-4.3,15-6.4,27.5-6.4h13.7v-1.9
			c0-4-1.4-6.8-4.3-8.7c-2.9-1.8-7.4-2.8-13.5-2.8c-5,0-9.6,0.5-13.8,1.6c-4.3,1.1-8.2,2.7-11.9,4.8v-19c5-1.3,9.9-2.3,14.9-3
			c5-0.7,10-1,15-1c13.1,0,22.5,2.8,28.3,8.3C341.3,421.1,344.2,430.1,344.2,442.6z M310.7,450.2c-4.8,0-8.5,0.9-10.9,2.6
			c-2.4,1.8-3.7,4.4-3.7,7.8c0,3.2,1,5.6,2.9,7.4c2,1.8,4.7,2.7,8.2,2.7c4.4,0,8-1.7,11-5.1c3-3.4,4.5-7.6,4.5-12.7v-2.9H310.7z"/>
		<path class="st9" d="M432.9,423.4c2.9-4.8,6.4-8.5,10.4-11.1c4-2.5,8.5-3.8,13.3-3.8c8.3,0,14.7,2.8,19,8.3
			c4.4,5.5,6.5,13.6,6.5,24.1v47.6h-23.3v-40.7c0-0.6,0.1-1.2,0.1-1.9c0-0.6,0-1.6,0-2.8c0-5.5-0.8-9.5-2.3-12
			c-1.5-2.5-3.9-3.7-7.3-3.7c-4.4,0-7.8,2-10.2,5.9c-2.4,3.9-3.6,9.6-3.7,16.9v38.4h-23.3v-40.7c0-8.6-0.7-14.2-2.1-16.7
			c-1.4-2.5-3.8-3.7-7.4-3.7c-4.4,0-7.9,2-10.3,5.9c-2.4,3.9-3.6,9.5-3.6,16.8v38.4h-23.3v-78.1h23.3v11.4c2.8-4.4,6.1-7.7,9.8-10
			c3.7-2.2,7.8-3.3,12.2-3.3c5,0,9.4,1.3,13.3,3.9C428,415,430.9,418.7,432.9,423.4z"/>
		<path class="st9" d="M509.4,410.4h23.2v78.1h-23.2V410.4z"/>
		<path class="st9" d="M627.6,440.9v47.6h-23.3v-7.7v-28.7c0-6.7-0.1-11.4-0.4-13.9c-0.3-2.6-0.8-4.4-1.5-5.6
			c-0.9-1.6-2.1-2.9-3.7-3.8c-1.6-0.9-3.3-1.4-5.3-1.4c-4.8,0-8.6,2-11.4,6c-2.8,4-4.1,9.6-4.1,16.7v38.4h-23.2v-78.1h23.2v11.4
			c3.5-4.6,7.2-7.9,11.1-10.1c3.9-2.2,8.3-3.2,13-3.2c8.4,0,14.7,2.8,19.1,8.3C625.5,422.3,627.6,430.4,627.6,440.9z"/>
	</g>
	<path class="st10" d="M534.7,384.5c0,3.9-1.3,7.2-3.9,9.8c-2.6,2.7-5.8,4-9.8,4c-3.7,0-6.9-1.4-9.8-4.2c-2.8-2.8-4.2-6-4.2-9.7
		c0-3.6,1.4-6.8,4.1-9.6c2.7-2.8,6-4.2,9.9-4.2c3.8,0,7,1.4,9.6,4.1C533.4,377.5,534.7,380.8,534.7,384.5z"/>
	<path class="st9" d="M172.1,384.1c0,3.9-1.3,7.2-3.9,9.8c-2.6,2.7-5.8,4-9.8,4c-3.7,0-6.9-1.4-9.8-4.2c-2.8-2.8-4.2-6-4.2-9.7
		c0-3.6,1.4-6.8,4.1-9.6c2.7-2.8,6-4.2,9.9-4.2c3.8,0,7,1.4,9.6,4.1C170.8,377.2,172.1,380.4,172.1,384.1z"/>
	<g>
		<path class="st10" d="M41.2,411.7h24.7l19.2,53.4l19.2-53.4h24.8l-30.4,77.3H71.6L41.2,411.7z"/>
	</g>
	<g>
		<path class="st8" d="M133,349.9l-1.6,11.9c-2.1,8.8-6.1,16.2-11.8,22.1c-8,8-18.7,11.9-32.1,11.9c-13.6,0-24.5-3.9-32.7-11.8
			c-5.5-5.5-9.4-12.8-11.9-22L41,350.1v-40.5c0.4-3.1,1-5.5,1.7-7.4c2.4-5,6.7-7.5,12.9-7.5c5.9,0,10,2.5,12.4,7.4
			c0.6,1.3,1.3,3.8,1.8,7.5v40.5c0.4,4,1.1,7.1,2,9.2c2.7,6.2,7.6,9.3,14.6,9.3c7,0,12-3.1,15.1-9.2c0.8-1.7,1.5-4.8,2.2-9.3v-66.6
			c0.4-3.1,1-5.5,1.8-6.9c2.5-4.6,6.9-6.9,13.1-6.9c5.8,0,9.9,2.3,12.4,6.9c0.6,1.3,1.3,3.7,1.8,6.9V349.9z M90,226
			c0,3.8-1.5,7.2-4.4,10.1c-2.9,3-6.4,4.5-10.3,4.5c-4,0-7.5-1.5-10.3-4.4c-2.9-2.9-4.3-6.3-4.3-10.2c0-4.1,1.4-7.6,4.2-10.4
			c2.8-2.9,6.3-4.3,10.4-4.3c4,0,7.5,1.4,10.4,4.3C88.5,218.5,90,222,90,226z"/>
	</g>
</g>
</svg>
